# xmcd CD database file
#
# Track frame offsets:
#	150
#	11894
#	25052
#	37771
#	53009
#	65554
#	76618
#	87876
#	98818
#	113528
#	126064
#	141785
#	153348
#	166477
#	179417
#	192956
#	206789
#	218713
#	232971
#	245576
#	259665
#
# Disc length: 3629 seconds
#
# Revision: 1
# Processed by: cddbd v1.5.2PL0 Copyright (c) Steve Scherf et al.
# Submitted via: CDex 1.51
#
DISCID=100e2b15
DTITLE=Woody Herman - [CD 07-10] - Love Is Here To Say
DYEAR=1900
DGENRE=Jazz
TTITLE0=New Golden Wedding  [1951]
TTITLE1=Blue Flame  [1951]
TTITLE2=Business Man's Bounce  [1951]
TTITLE3=Prelude To A Kiss  [1951]
TTITLE4=Brother Fats  [1951]
TTITLE5=Three Handed Woman  [1951]
TTITLE6=My Baby's Gone  [1952]
TTITLE7=Dandy Lion  [1952]
TTITLE8=Blues In Advance  [1952]
TTITLE9=Jump In The Line  [1952]
TTITLE10=Terressita  [1952]
TTITLE11=Stompin' At The Savoy  [1952]
TTITLE12=Early Autumn  [1952]
TTITLE13=Celestial Blues  [1952]
TTITLE14=Baby Clementine  [1952]
TTITLE15=Perdido  [1952]
TTITLE16=Moten Stomp  [1952]
TTITLE17=Singin' In The Rain  [1952]
TTITLE18=Love Is Here To Say  [1952]
TTITLE19=East Of The Sun  (West Of The Moon)  [1952]
TTITLE20=I Would Do Anything For You  [1952]
EXTD=
EXTT0=
EXTT1=
EXTT2=
EXTT3=
EXTT4=
EXTT5=
EXTT6=
EXTT7=
EXTT8=
EXTT9=
EXTT10=
EXTT11=
EXTT12=
EXTT13=
EXTT14=
EXTT15=
EXTT16=
EXTT17=
EXTT18=
EXTT19=
EXTT20=
PLAYORDER=
